<svg width="1728" height="972" viewBox="0 0 1728 972" fill="none" xmlns="http://www.w3.org/2000/svg" preserveAspectRatio="none">
  <rect width="1728" height="972" fill="#F8EEE7"/>
  <path d="M0 115C166 34 305 36 430 65C555 94 627 78 721 48C846 8 988 22 1118 75C1265 135 1431 139 1728 72V0H0V115Z" fill="#F4E4D8" fill-opacity="0.62"/>
  <path d="M0 510C147 461 282 449 410 485C555 526 676 541 833 491C1032 428 1199 473 1342 511C1477 547 1603 536 1728 497V972H0V510Z" fill="#F4E4D8" fill-opacity="0.48"/>
  <path d="M0 876C157 822 255 850 378 886C516 926 621 929 746 895C919 848 1062 827 1238 883C1393 933 1549 940 1728 885V972H0V876Z" fill="#FFFFFF" fill-opacity="0.38"/>
  <circle cx="1210" cy="206" r="270" fill="#FFFFFF" fill-opacity="0.24"/>
  <circle cx="250" cy="780" r="210" fill="#FFFFFF" fill-opacity="0.20"/>
</svg>
